PathFileType	4	(X/Y/Z)	1_2_rein_91_p1_0-220.trc
DataRate	CameraRate	NumFrames	NumMarkers	Units	OrigDataRate	OrigDataStartFrame	OrigNumFrames
59.0	59.0	6	27	m	59.0	55	221
Frame#	Time	RHip			RKnee			RAnkle			RBigToe			RSmallToe			RHeel			LHip			LKnee			LAnkle			LBigToe			LSmallToe			LHeel			Neck			Head			Nose			RShoulder			RElbow			RWrist			RThumb			RIndex			RPinky			LShoulder			LElbow			LWrist			LThumb			LIndex			LPinky			
		X1	Y1	Z1	X2	Y2	Z2	X3	Y3	Z3	X4	Y4	Z4	X5	Y5	Z5	X6	Y6	Z6	X7	Y7	Z7	X8	Y8	Z8	X9	Y9	Z9	X10	Y10	Z10	X11	Y11	Z11	X12	Y12	Z12	X13	Y13	Z13	X14	Y14	Z14	X15	Y15	Z15	X16	Y16	Z16	X17	Y17	Z17	X18	Y18	Z18	X19	Y19	Z19	X20	Y20	Z20	X21	Y21	Z21	X22	Y22	Z22	X23	Y23	Z23	X24	Y24	Z24	X25	Y25	Z25	X26	Y26	Z26	X27	Y27	Z27	
55	0.9322033898305084	0.3705704189883217	0.24383828521843123	1.0966035705145956	0.35578884908734876	0.34221810432269617	1.5236429704396806	0.3480294148012717	0.42591968601376995	1.969511887230436	0.34422695679572807	0.2059707524769357	1.996177736841457	0.40026687856142135	0.251859368873903	2.0080730837091316	0.332744459113485	0.4728395222378645	2.0186166019156198	0.1530567088041639	0.24901711620361874	1.101245376151495	0.17014007313007812	0.3014127701969755	1.514742156843991	0.1815081072491705	0.37495762224448953	1.9358097526293394	0.16501440777123044	0.22417450050195886	2.0088960226635955	0.1213560547404104	0.23948024015725702	1.9887231562062389	0.20486090982957145	0.4377048510529356	1.9933593419015796	0.2527172510155181	0.19149992468334695	0.4640126226931488	0.2642126125775156	0.09580834686566575	0.2227930639189609	0.2742346463433806	0.056326208799066406	0.37344548536719474	0.4318929558365356	0.24251479160225642	0.5422814097054822	0.5532939410195598	0.213051217113642	0.8077268748053174	0.4444723698237367	0.017878366701979436	0.7026904756081752	0.3639727953665399	-0.06809015187879172	0.6502011319556603	0.36382943457761757	-0.08771524566568475	0.646195986093037	0.38982442568144726	-0.11688318912023943	0.675135295404009	0.08210542646077172	0.22537834730583456	0.5625992756185804	0.04693889548010832	0.18844866227991453	0.8567042426153675	0.12974458152984067	0.09756537361787045	1.1117677721418935	0.2049152169290601	0.10378837129590557	1.2106420220266305	0.16222014606714666	0.08939325062624918	1.23707095565983	0.13768781713977346	0.09026255141596916	1.233384335657207
56	0.9491525423728814	0.3706224412590819	0.24374850185810149	1.0965407560178762	0.36041748236805443	0.34474510905086236	1.5206100171427726	0.3491524473453214	0.4278941797062454	1.9750671402600593	0.34421802269142315	0.20562329680004116	1.996129849129294	0.40011283608101045	0.2509670956308837	2.0076653508446625	0.33403179561068297	0.47509171499484143	2.0240994832913075	0.1578516212224555	0.23562051001430867	1.0976257517850374	0.17023542947734285	0.30125453538548186	1.5147713147454864	0.18167543714294943	0.37532010294787505	1.9362086576551647	0.16504138509936342	0.2237861010577314	2.008915131792309	0.12609843248186572	0.22613785673262507	1.9810352483040057	0.20485391325565305	0.4378536803682537	1.9934599148974173	0.2530445847635635	0.19267666528300934	0.46735785606235025	0.26517472037225276	0.095194121685027	0.2288012467567672	0.2772802879260755	0.06575533950803747	0.3730916305001637	0.42825452947681136	0.25758446748886227	0.540380903662689	0.5523071623323569	0.21277017372086385	0.800239572782321	0.4415298910788509	0.004027055302986562	0.677602114047923	0.36412821332144824	-0.05953351461812258	0.608496008786481	0.36128998264270334	-0.08614232689427931	0.6058362578196113	0.38957664997243374	-0.11905913562830282	0.639043977456874	0.0822230976995547	0.2267143321582715	0.5664441940202148	0.0417941541898942	0.20152341175619257	0.8557145725232136	0.12969679330936865	0.09751451413321179	1.1118904699700585	0.20048645560558628	0.1171560143204208	1.2149457363358702	0.16206598269264855	0.08957922941830959	1.2371161674855584	0.13765711752472967	0.09019005290566223	1.2333951010107305
57	0.9661016949152542	0.37413568222688176	0.2552146104516665	1.0990125477455972	0.36039479469583185	0.3448032944256102	1.5204606497298134	0.3491818396434423	0.42789992644349734	1.9750556285097105	0.3442714196813971	0.2054087919804194	1.9961121439489442	0.3999848816489701	0.2506924731592106	2.0075261421646946	0.3340286651306636	0.47521983350302816	2.024325816818504	0.15826204455085224	0.23396792548670634	1.1007350473845328	0.17037288831873312	0.30125851217555943	1.5148943956810998	0.18166181609695253	0.37560034316606095	1.9364168723071853	0.16971548652907995	0.20966348763901843	2.000891626012136	0.12619017457303006	0.22600122598169353	1.9811617094056757	0.20485040828677636	0.43806318715780806	1.9936758323504624	0.25303561667993935	0.193345171664389	0.4673248411581544	0.265281306678769	0.09513700048884656	0.22890743109703982	0.277376351737204	0.0656784599399571	0.3731295633834687	0.42812025352518057	0.25810544876174196	0.5402980330063342	0.5523584527707596	0.2125620474287309	0.7999477038079609	0.4460621381904356	0.015230724425608293	0.6537569269734681	0.3644640143362698	-0.046298328094557105	0.586728381235798	0.3631633228434733	-0.06473454686273887	0.5749645858467032	0.3910802447223339	-0.125635641681902	0.6185548445248518	0.08216193443832473	0.22674012167098295	0.5664532172766125	0.04688236578093425	0.18849327509813638	0.8567814161690542	0.12571584735384886	0.1079870047215356	1.1192486855956079	0.19877973653475456	0.12515296027033965	1.2168301691778658	0.16199625011321017	0.08993214371949543	1.237387276249522	0.1376363275607862	0.09042766765383885	1.2336377609686962
58	0.9830508474576272	0.3700896568381983	0.2695366155065749	1.1027154492267899	0.3557943192322463	0.34334191847928114	1.5200631518815662	0.3492374644450787	0.42787822386816116	1.9750841757803115	0.3440555282571911	0.20519475762324177	1.995760804347802	0.39596334283136236	0.26500140213584045	2.0158753309498367	0.3345804349832405	0.4733698799564689	2.027898556806653	0.15842086026036709	0.23302121989425084	1.1038983836016212	0.17030906410106902	0.2998480296903814	1.5181104480692207	0.18158756521609515	0.3756695652387192	1.9364573654428991	0.1651030348422803	0.22382695321166454	2.0090819484300813	0.12532943753589507	0.22398535804192446	1.9758703198818848	0.20490819594272824	0.43816258064717845	1.9938578998774212	0.2526553952274133	0.19348083936864752	0.4672367752586776	0.2661390144207603	0.09319576506835958	0.23170622665412738	0.2774313860667425	0.06581819962918022	0.37309660670397304	0.42781631595608777	0.25887340274353904	0.5400335083628509	0.551820449183375	0.21536044724767872	0.7927726885477892	0.4479280672083171	0.004651741458571038	0.6297036346241169	0.3630471021131213	-0.044388746530221714	0.5664155698314519	0.3626959431434429	-0.050514550590014945	0.550235015184268	0.38803895473800815	-0.09694748272979513	0.5956953687878849	0.08196203225755636	0.2249398863738048	0.5627304274168969	0.046633389300571385	0.18651662440616543	0.852991669339366	0.1257808400019389	0.10795773511329525	1.119340008606781	0.19866748643961946	0.1253173608061845	1.216937130662461	0.16247673890903538	0.09147938037176362	1.2412917569260142	0.1335591043803923	0.10157513672406467	1.237544007409264
59	1.0	0.37008615108789034	0.26966035208984784	1.103005331572678	0.36034832967011227	0.34486151799628545	1.5203877370395713	0.34922455275746184	0.42792566858774883	1.975068451303309	0.34405839591895887	0.2053605050358983	1.9958138643111354	0.3961061407250291	0.26555162142644495	2.016147634698324	0.33401904187680276	0.475205157688323	2.02445895913131	0.15883051074202106	0.231361561700848	1.1069369472299857	0.1708874379952618	0.2979762318366804	1.5217893556389332	0.18174874930293644	0.3754229086078814	1.9363656439664827	0.16977548578243232	0.20997668567886277	2.0010944138282256	0.12622023218233006	0.2260949512901297	1.9812115695184604	0.20495528834008012	0.4380010909143538	1.9937334426046236	0.2482059694014204	0.20472466434094083	0.46810894487278265	0.2661133472681207	0.09189140592221938	0.22871182054342803	0.2775067778968146	0.06569746381213173	0.37306381350256085	0.426940458443681	0.26033091117218365	0.5361045197197267	0.5546419877489639	0.20175457277816947	0.7896999790125354	0.4489744371531283	-0.0019986387074565704	0.6113019146265669	0.3570490587626557	-0.021554224204528353	0.5395176410405937	0.3639175658052596	-0.03571946384217865	0.5364183317601977	0.3935509248669551	-0.10422650214134155	0.5710791832062267	0.08220745944838123	0.22645483754847257	0.5665386082468865	0.04729921484475329	0.186863399824087	0.8603950619526834	0.12577715691299063	0.10767035536573291	1.1195769636438397	0.19506068524020173	0.13829003990911604	1.2284817567098216	0.16531679676958827	0.10229623504712734	1.2444397593993701	0.1333938936746403	0.10173625096377942	1.2377417385838447
60	1.0169491525423728	0.3694106595181234	0.26837147918863397	1.0987247950318795	0.36458775456702813	0.32992067593187313	1.5143113848597003	0.34809474341950586	0.4258391562033142	1.9695423719458889	0.3444699964126661	0.20518823350499862	1.9959435363594236	0.40430476816916666	0.26180090464928174	2.0129423851149344	0.33359914904021787	0.46851483747785305	2.0261795951402797	0.15816690866608485	0.22965256831323114	1.1020481326076963	0.17038166722536877	0.30095172463232656	1.5148238796268525	0.18154632208600474	0.3761249689603777	1.936798791217917	0.17261001393334924	0.22138351084388683	2.007275455504305	0.1251371801935646	0.22278164252015187	1.9793990478402734	0.20517036358602453	0.4346913894549291	2.0021779616310997	0.24787414452974924	0.20476539931100105	0.468070582778046	0.2661377075599224	0.09208463863401135	0.22878758373100563	0.2776072997828675	0.06575282349039731	0.3729666286517954	0.42680667868599226	0.2606490047825614	0.5360200451405793	0.5546294483346159	0.20202728777762133	0.7858421708945413	0.4469843021820128	0.0007188031519340892	0.5985782468697634	0.35327838583147964	-0.014517454006410654	0.5188720707668483	0.35619743197065895	-0.030635938621813318	0.5149836026287657	0.3907339146839	-0.10561732104880213	0.5464073874305633	0.08596117069233943	0.22851044017083477	0.5665528790063642	0.04743515715231965	0.18655332852902395	0.860391212017087	0.1257481945375411	0.1074198918167512	1.119582945220129	0.19452155721998768	0.13672171116427134	1.2245201224975757	0.16473193722799515	0.1008023103613286	1.2404860900380137	0.1290721783134392	0.11297919585442959	1.241514513368026
